<svg width="300" height="300" viewBox="0 0 300 300" fill="none" xmlns="http://www.w3.org/2000/svg">
<rect width="300" height="300" rx="45" fill="#1B3B6F"/>
<path d="M112 212C145.137 212 172 185.137 172 152C172 118.863 145.137 92 112 92C78.8629 92 52 118.863 52 152C52 185.137 78.8629 212 112 212Z" stroke="#E6F4FF" stroke-width="20"/>
<path d="M199.5 199C225.734 199 247 177.734 247 151.5C247 125.266 225.734 104 199.5 104C173.266 104 152 125.266 152 151.5C152 177.734 173.266 199 199.5 199Z" stroke="#027BCF" stroke-width="20"/>
<mask id="mask0_249_341" style="mask-type:luminance" maskUnits="userSpaceOnUse" x="32" y="52" width="200" height="100">
<path d="M232 52H32V152H232V52Z" fill="white"/>
</mask>
<g mask="url(#mask0_249_341)">
<path d="M112 212C145.137 212 172 185.137 172 152C172 118.863 145.137 92 112 92C78.8629 92 52 118.863 52 152C52 185.137 78.8629 212 112 212Z" stroke="#E6F4FF" stroke-width="20"/>
</g>
</svg>
