<svg width="415" height="415" viewBox="0 0 415 415" fill="none" xmlns="http://www.w3.org/2000/svg">
<rect width="415" height="415" rx="56.3208" fill="#010B3E"/>
<rect x="64.5" y="129.5" width="287" height="179" stroke="black"/>
<path d="M154 309C203.706 309 244 268.706 244 219C244 169.294 203.706 129 154 129C104.294 129 64 169.294 64 219C64 268.706 104.294 309 154 309Z" stroke="white" stroke-width="30"/>
<path d="M285.75 289.5C325.1 289.5 357 257.6 357 218.25C357 178.9 325.1 147 285.75 147C246.4 147 214.5 178.9 214.5 218.25C214.5 257.6 246.4 289.5 285.75 289.5Z" stroke="#FAAF03" stroke-width="30"/>
<mask id="mask0_406_569" style="mask-type:luminance" maskUnits="userSpaceOnUse" x="154" y="129" width="180" height="90">
<path d="M334 129H154V219H334V129Z" fill="white"/>
</mask>
<g mask="url(#mask0_406_569)">
<path d="M154 309C203.706 309 244 268.706 244 219C244 169.294 203.706 129 154 129C104.294 129 64 169.294 64 219C64 268.706 104.294 309 154 309Z" stroke="white" stroke-width="30"/>
</g>
</svg>
