<svg width="1009" height="300" viewBox="0 0 1009 300" fill="none" xmlns="http://www.w3.org/2000/svg">
<rect width="300" height="300" rx="45" fill="#1B3B6F"/>
<path d="M112 212C145.137 212 172 185.137 172 152C172 118.863 145.137 92 112 92C78.8629 92 52 118.863 52 152C52 185.137 78.8629 212 112 212Z" stroke="#E6F4FF" stroke-width="20"/>
<path d="M199.5 199C225.734 199 247 177.734 247 151.5C247 125.266 225.734 104 199.5 104C173.266 104 152 125.266 152 151.5C152 177.734 173.266 199 199.5 199Z" stroke="#027BCF" stroke-width="20"/>
<mask id="mask0_249_378" style="mask-type:luminance" maskUnits="userSpaceOnUse" x="32" y="52" width="200" height="100">
<path d="M232 52H32V152H232V52Z" fill="white"/>
</mask>
<g mask="url(#mask0_249_378)">
<path d="M112 212C145.137 212 172 185.137 172 152C172 118.863 145.137 92 112 92C78.8629 92 52 118.863 52 152C52 185.137 78.8629 212 112 212Z" stroke="#E6F4FF" stroke-width="20"/>
</g>
<path d="M358.68 217V91H373.08L425.46 177.22H416.1L468.48 91H482.88V217H462.18V127.36L466.86 128.62L427.98 192.52H413.58L374.7 128.62L379.38 127.36V217H358.68ZM535.403 217.9L498.503 130.6H520.283L545.483 194.68H539.183L565.823 130.6H587.783L547.643 217.9H535.403ZM509.663 253L536.483 197.74L547.643 217.9L531.623 253H509.663ZM598.558 217V130.6H618.358V217H598.558ZM618.358 168.94L611.518 165.52C611.518 154.6 613.918 145.78 618.718 139.06C623.638 132.22 631.018 128.8 640.858 128.8C645.178 128.8 649.078 129.58 652.558 131.14C656.038 132.7 659.278 135.22 662.278 138.7L649.318 152.02C647.758 150.34 646.018 149.14 644.098 148.42C642.178 147.7 639.958 147.34 637.438 147.34C631.918 147.34 627.358 149.08 623.758 152.56C620.158 156.04 618.358 161.5 618.358 168.94ZM672.039 217V130.6H691.839V217H672.039ZM681.939 114.76C678.579 114.76 675.759 113.62 673.479 111.34C671.319 109.06 670.239 106.24 670.239 102.88C670.239 99.52 671.319 96.7 673.479 94.42C675.759 92.14 678.579 91 681.939 91C685.419 91 688.239 92.14 690.399 94.42C692.559 96.7 693.639 99.52 693.639 102.88C693.639 106.24 692.559 109.06 690.399 111.34C688.239 113.62 685.419 114.76 681.939 114.76ZM750.226 218.8C742.426 218.8 735.346 216.82 728.986 212.86C722.746 208.9 717.766 203.56 714.046 196.84C710.446 190 708.646 182.38 708.646 173.98C708.646 165.46 710.446 157.84 714.046 151.12C717.766 144.28 722.746 138.88 728.986 134.92C735.346 130.84 742.426 128.8 750.226 128.8C756.826 128.8 762.646 130.24 767.686 133.12C772.846 135.88 776.926 139.72 779.926 144.64C782.926 149.56 784.426 155.14 784.426 161.38V186.22C784.426 192.46 782.926 198.04 779.926 202.96C777.046 207.88 773.026 211.78 767.866 214.66C762.706 217.42 756.826 218.8 750.226 218.8ZM753.466 200.08C760.786 200.08 766.666 197.62 771.106 192.7C775.666 187.78 777.946 181.48 777.946 173.8C777.946 168.64 776.926 164.08 774.886 160.12C772.846 156.16 769.966 153.1 766.246 150.94C762.646 148.66 758.386 147.52 753.466 147.52C748.666 147.52 744.406 148.66 740.686 150.94C737.086 153.1 734.206 156.16 732.046 160.12C730.006 164.08 728.986 168.64 728.986 173.8C728.986 178.96 730.006 183.52 732.046 187.48C734.206 191.44 737.086 194.56 740.686 196.84C744.406 199 748.666 200.08 753.466 200.08ZM776.686 217V193.78L780.106 172.72L776.686 151.84V130.6H796.486V217H776.686ZM854.64 218.8C846.84 218.8 839.76 216.82 833.4 212.86C827.16 208.9 822.18 203.56 818.46 196.84C814.86 190 813.06 182.38 813.06 173.98C813.06 165.46 814.86 157.84 818.46 151.12C822.18 144.28 827.16 138.88 833.4 134.92C839.76 130.84 846.84 128.8 854.64 128.8C861.24 128.8 867.06 130.24 872.1 133.12C877.26 135.88 881.34 139.72 884.34 144.64C887.34 149.56 888.84 155.14 888.84 161.38V186.22C888.84 192.46 887.34 198.04 884.34 202.96C881.46 207.88 877.44 211.78 872.28 214.66C867.12 217.42 861.24 218.8 854.64 218.8ZM857.88 200.08C862.8 200.08 867.06 199 870.66 196.84C874.38 194.56 877.26 191.44 879.3 187.48C881.34 183.52 882.36 178.96 882.36 173.8C882.36 168.64 881.34 164.08 879.3 160.12C877.26 156.16 874.38 153.1 870.66 150.94C867.06 148.66 862.8 147.52 857.88 147.52C853.08 147.52 848.82 148.66 845.1 150.94C841.5 153.1 838.62 156.16 836.46 160.12C834.42 164.08 833.4 168.64 833.4 173.8C833.4 178.96 834.42 183.52 836.46 187.48C838.62 191.44 841.5 194.56 845.1 196.84C848.82 199 853.08 200.08 857.88 200.08ZM900.9 217H881.1V193.78L884.52 172.72L881.1 151.84V87.4H900.9V217ZM963.015 218.8C954.375 218.8 946.575 216.88 939.615 213.04C932.775 209.08 927.315 203.68 923.235 196.84C919.275 190 917.295 182.32 917.295 173.8C917.295 165.28 919.275 157.66 923.235 150.94C927.195 144.1 932.535 138.7 939.255 134.74C946.095 130.78 953.655 128.8 961.935 128.8C969.975 128.8 977.055 130.66 983.175 134.38C989.415 138.1 994.275 143.2 997.755 149.68C1001.35 156.16 1003.15 163.54 1003.15 171.82C1003.15 173.26 1003.03 174.76 1002.79 176.32C1002.67 177.76 1002.43 179.38 1002.07 181.18H931.155V164.98H991.815L984.435 171.46C984.195 166.18 983.175 161.74 981.375 158.14C979.575 154.54 976.995 151.78 973.635 149.86C970.395 147.94 966.375 146.98 961.575 146.98C956.535 146.98 952.155 148.06 948.435 150.22C944.715 152.38 941.835 155.44 939.795 159.4C937.755 163.24 936.735 167.86 936.735 173.26C936.735 178.66 937.815 183.4 939.975 187.48C942.135 191.56 945.195 194.74 949.155 197.02C953.115 199.18 957.675 200.26 962.835 200.26C967.275 200.26 971.355 199.48 975.075 197.92C978.915 196.36 982.155 194.08 984.795 191.08L997.395 203.86C993.195 208.78 988.095 212.5 982.095 215.02C976.095 217.54 969.735 218.8 963.015 218.8Z" fill="#1B3B6F"/>
</svg>
